<svg width="375" height="435" viewBox="0 0 375 435" fill="none" xmlns="http://www.w3.org/2000/svg">
<path opacity="0.21" d="M305.884 342.765C223.094 390.564 103.841 358.651 56.7338 277.059C9.62677 195.467 8.62086 114.842 91.4117 67.0428C174.203 19.2435 235.201 48.4679 282.308 130.06C329.415 211.651 388.675 294.965 305.884 342.765Z" fill="#D61355"/>
<path opacity="0.21" d="M328.651 95.1112C316.813 84.878 315.889 64.0914 326.565 51.7407C337.241 39.39 350.095 34.3927 361.933 44.626C373.771 54.8592 372.179 66.2657 361.503 78.6164C350.827 90.9671 340.49 105.344 328.651 95.1112Z" fill="#D61355"/>
<path opacity="0.21" d="M361.79 336.295C372.855 347.36 368.689 371.739 353.279 387.149C337.87 402.558 317.415 404.817 310.737 398.431C304.059 392.045 304.377 373.815 319.787 358.406C335.196 342.996 350.725 325.23 361.79 336.295Z" fill="url(#paint0_linear_1_4465)"/>
<path opacity="0.21" d="M-0.130309 276.436C14.9847 272.386 34.0148 288.184 39.655 309.234C45.2953 330.284 37.024 349.127 28.1545 351.717C19.285 354.307 3.65664 344.917 -1.98364 323.867C-7.62391 302.818 -15.2453 280.486 -0.130309 276.436Z" fill="#D61355"/>
<path d="M81.2936 124.576L130.076 198.346C130.076 198.346 157.692 196.654 168.18 181.486L142.464 97.3941C142.464 97.3941 100.26 120.626 81.2936 124.576Z" fill="#BA5F49"/>
<g style="mix-blend-mode:multiply" opacity="0.75">
<path d="M145.779 107.956L142.532 97.3417C142.532 97.3417 100.327 120.574 81.3611 124.523L91.7289 140.206C113.938 134.609 126.665 127.183 145.779 107.956Z" fill="#8F5243"/>
</g>
<path d="M148.887 143.06C144.627 134.053 133.598 130.332 124.253 134.75C114.908 139.167 110.785 150.049 115.045 159.056C119.305 168.063 130.334 171.783 139.679 167.366C149.024 162.949 153.146 152.067 148.887 143.06Z" fill="#CCB1B1"/>
<path d="M144.698 144.587C146.203 147.975 146.304 151.821 144.98 155.283C143.657 158.745 141.015 161.54 137.634 163.057C135.998 163.914 134.204 164.431 132.362 164.577C130.521 164.722 128.668 164.493 126.916 163.904C125.165 163.314 123.551 162.376 122.171 161.146C120.791 159.916 119.674 158.42 118.888 156.747C118.101 155.074 117.662 153.26 117.595 151.413C117.528 149.566 117.836 147.725 118.5 146.001C119.163 144.276 120.169 142.704 121.457 141.379C122.744 140.054 124.286 139.004 125.991 138.291C129.307 136.656 133.136 136.4 136.641 137.579C140.147 138.759 143.043 141.279 144.698 144.587Z" fill="#F0E1DD"/>
<path d="M128.081 156.734C127.788 155.689 127.807 154.582 128.136 153.548C128.464 152.514 129.088 151.598 129.93 150.915C130.932 149.868 132.317 149.281 133.311 148.294C134.305 147.308 134.071 145.783 133.882 144.387C133.704 143.209 133.459 142.043 133.15 140.893C129.952 141.097 126.61 144.012 125.071 148.346C123.183 153.626 124.668 159 128.404 160.328C128.884 160.496 129.386 160.59 129.893 160.609C129.142 159.392 128.533 158.091 128.081 156.734Z" fill="#8F4B46"/>
<path d="M135.211 141.109C135.44 142.033 135.639 142.989 135.809 143.976C136.075 144.88 136.131 145.832 135.974 146.761C135.817 147.689 135.451 148.57 134.903 149.336C133.435 150.933 129.883 152.251 129.75 154.873C129.928 156.854 130.713 158.732 131.997 160.252C133.56 159.629 134.963 158.663 136.102 157.424C137.241 156.186 138.086 154.706 138.575 153.096C140.416 147.825 138.943 142.468 135.211 141.109Z" fill="#8F4B46"/>
<g style="mix-blend-mode:screen">
<path d="M157.81 185.597C159.145 184.562 160.768 183.304 162.425 182.02C157.419 168.193 141.158 123.153 135.648 107.279C133.036 108.736 130.341 110.039 127.576 111.179C133.304 126.532 149.977 170.008 156.95 186.129C157.286 186.003 157.552 185.824 157.81 185.597Z" fill="#8F524D"/>
</g>
<g style="mix-blend-mode:multiply" opacity="0.55">
<path d="M123.668 155.091C115.465 147.37 108.668 137.936 101.35 129.366C99.6396 127.455 98.0669 125.426 96.6434 123.293C93.0907 124.688 89.4365 125.809 85.7126 126.647L130.381 194.481C130.381 194.481 155.329 193.152 164.798 179.288L161.913 169.908C148.082 170.881 134.517 165.284 123.668 155.091Z" fill="#8B4B3A"/>
</g>
<g style="mix-blend-mode:multiply" opacity="0.55">
<path d="M103.884 120.903C101.254 122.048 95.6695 123.642 93.2026 124.579C100.841 137.612 135.096 192.289 136.071 193.861C139.219 193.317 142.329 192.571 145.381 191.628C142.541 187.196 105.523 124.345 103.884 120.903Z" fill="#A75640"/>
</g>
<g style="mix-blend-mode:screen">
<path d="M143.907 129.984C144.176 130.893 144.171 131.861 143.891 132.767C143.612 133.673 143.071 134.476 142.337 135.076C141.603 135.675 140.709 136.044 139.765 136.137C138.822 136.23 137.872 136.042 137.035 135.597C136.198 135.152 135.51 134.47 135.059 133.636C134.607 132.802 134.412 131.854 134.498 130.91C134.583 129.966 134.945 129.068 135.539 128.329C136.133 127.59 136.931 127.044 137.835 126.757C138.445 126.57 139.087 126.504 139.722 126.565C140.358 126.626 140.976 126.811 141.54 127.111C142.104 127.411 142.603 127.819 143.01 128.312C143.416 128.805 143.721 129.373 143.907 129.984Z" fill="#B28784"/>
</g>
<g style="mix-blend-mode:screen">
<path d="M143.313 121.185C143.443 121.719 143.416 122.279 143.233 122.797C143.05 123.315 142.719 123.769 142.283 124.102C141.846 124.435 141.321 124.633 140.773 124.672C140.225 124.712 139.677 124.59 139.197 124.323C138.717 124.055 138.325 123.654 138.07 123.167C137.814 122.68 137.706 122.13 137.759 121.583C137.812 121.036 138.023 120.516 138.367 120.087C138.711 119.659 139.172 119.34 139.694 119.17C140.064 119.062 140.452 119.029 140.834 119.072C141.217 119.115 141.588 119.234 141.924 119.421C142.261 119.609 142.557 119.861 142.795 120.164C143.034 120.467 143.209 120.814 143.313 121.185Z" fill="#B28784"/>
</g>
<path d="M74.6917 120.107L74.9128 131.741C74.9128 131.741 95.1199 132.326 118.691 118.85C142.263 105.375 150.709 97.3132 150.709 97.3132L142.138 87.1963C142.138 87.1963 119.677 84.297 74.6917 120.107Z" fill="#F2F2F2"/>
<g style="mix-blend-mode:screen" opacity="0.9">
<path d="M83.8116 125.765C84.1405 121.655 84.6934 117.566 85.4677 113.516L85.7442 111.813C82.2712 114.315 78.5632 117.107 74.731 120.158L74.9127 131.741C77.6537 131.738 80.3907 131.536 83.1019 131.134C83.2479 129.333 83.4847 127.541 83.8116 125.765Z" fill="#F2F2F2"/>
</g>
<g style="mix-blend-mode:screen" opacity="0.9">
<path d="M123.728 115.922C143.473 104.248 150.675 97.3395 150.675 97.3395L142.138 87.1964C138.191 87.0323 134.245 87.5364 130.467 88.6874C128.761 97.8341 125.935 106.793 123.728 115.922Z" fill="#F2F2F2"/>
</g>
<path d="M74.6916 120.107L74.9127 131.741C74.9127 131.741 95.1198 132.325 118.691 118.85C142.263 105.375 150.709 97.3131 150.709 97.3131L142.138 87.1962C142.138 87.1962 123.448 109.694 74.6916 120.107Z" fill="#DEDEDE"/>
<g style="mix-blend-mode:screen" opacity="0.65">
<path d="M131.816 96.2242C129.534 97.993 126.73 99.787 123.513 101.712C124.729 105.236 126.319 108.824 127.168 111.387C127.385 112.086 127.619 112.771 127.888 113.537C132.464 110.748 136.221 108.298 139.297 106.157C136.572 103.027 134.072 99.7078 131.816 96.2242Z" fill="#C7CBC9"/>
</g>
<g style="mix-blend-mode:multiply" opacity="0.35">
<path d="M104.454 111.094C96.4427 114.315 88.2053 116.943 79.8084 118.958C79.8546 119.436 79.9008 119.915 79.917 120.39C80.0878 124.102 79.8985 127.768 80.3771 131.459C91.6881 130.241 102.697 127.051 112.906 122.034C108.938 119.442 105.961 115.587 104.454 111.094Z" fill="#8F838D"/>
</g>
<path d="M82.142 104.126L83.8024 115.592C94.0887 113.264 103.984 109.462 113.182 104.303C128.577 95.6753 132.631 90.9901 132.631 90.9901L126.33 82.3359C126.33 82.3359 114.495 81.3814 97.7607 91.3181C91.9239 94.7548 86.6552 99.0754 82.142 104.126Z" fill="#F2F2F2"/>
<g style="mix-blend-mode:screen" opacity="0.9">
<path d="M126.011 85.9404C126.295 85.5037 126.552 85.0332 126.81 84.5627C126.98 84.2092 127.201 83.8827 127.467 83.5938L126.405 82.2237C124.078 82.151 121.751 82.3466 119.469 82.8065C119.362 84.3789 119.22 85.9775 119.04 87.5253C118.859 89.0731 118.66 90.527 118.412 92.1272C121.073 90.2269 123.611 88.1605 126.011 85.9404Z" fill="#F2F2F2"/>
</g>
<g style="mix-blend-mode:screen" opacity="0.9">
<path d="M107.032 98.6722C108.145 98.1884 109.236 97.6407 110.31 97.1062C109.716 96.2745 109.429 95.2623 109.498 94.2428C109.638 91.2105 110.179 88.1378 110.572 85.1529C109.232 85.6231 107.82 86.1758 106.417 86.7754C105.45 91.0445 104.823 95.4025 104.152 99.7398C105.055 99.4733 106.05 99.0812 107.032 98.6722Z" fill="#F2F2F2"/>
</g>
<g style="mix-blend-mode:screen" opacity="0.9">
<path d="M86.9539 104.54C87.1375 103.892 87.341 103.247 87.5647 102.604C87.9912 100.92 88.4347 99.2225 88.9043 97.5589C86.4716 99.5564 84.2096 101.753 82.1417 104.126L82.3903 106.019C83.8922 105.477 85.4034 104.983 86.9539 104.54Z" fill="#F2F2F2"/>
</g>
<path d="M108.632 94.1023C100.356 98.4618 91.5515 101.736 82.4371 103.844L82.1158 104.093L83.8025 115.592C94.0888 113.264 103.984 109.462 113.182 104.303C128.577 95.6754 132.631 90.9903 132.631 90.9903L126.422 82.4544C120.869 86.8846 114.913 90.7843 108.632 94.1023Z" fill="#DEDEDE"/>
<g style="mix-blend-mode:screen" opacity="0.65">
<path d="M119.947 87.2286C118.177 88.4373 116.51 89.5674 114.759 90.6261C116.162 94.0067 118.011 97.2306 119.623 100.394C123.475 98.0316 126.285 96.0706 128.289 94.5715C125.647 92.0703 122.763 89.6757 119.947 87.2286Z" fill="#C7CBC9"/>
</g>
<g style="mix-blend-mode:multiply" opacity="0.35">
<path d="M104.108 100.451C103.335 99.453 102.535 98.4212 101.82 97.3239C95.6206 100.155 89.1411 102.327 82.4878 103.804L82.1666 104.053L83.8025 115.592C92.6736 113.592 101.258 110.487 109.355 106.348C107.44 104.537 105.685 102.564 104.108 100.451Z" fill="#8F838D"/>
</g>
<path d="M88.6098 100.251C93.1734 96.5121 98.108 93.2503 103.336 90.5169C108.093 88.3622 113.056 86.6935 118.148 85.5362C113.675 88.7194 109 91.6097 104.153 94.1891C99.1271 96.5871 93.9322 98.6132 88.6098 100.251Z" fill="#A1A8A6"/>
<g style="mix-blend-mode:multiply">
<path d="M98.4151 92.8956C97.5718 93.4138 96.8031 94.3073 95.9468 94.8085C94.3839 96.1754 92.9312 97.6633 91.6021 99.2586C93.7385 98.5235 96.7422 97.4411 100.324 95.8832C99.8814 92.2737 98.9126 92.6996 98.4151 92.8956Z" fill="#A1A8A6"/>
</g>
<path d="M94.134 97.5672C93.6179 97.6694 93.1007 97.1767 92.8541 96.4743C92.1349 94.3242 91.0839 90.6984 91.5932 90.1684C91.9517 88.7805 99.3443 92.6629 99.3063 92.9631C99.1662 93.8298 98.7955 95.7957 98.279 96.1418C96.969 96.8039 95.5743 97.2835 94.134 97.5672Z" fill="#DEDEDE"/>
<g style="mix-blend-mode:screen" opacity="0.65">
<path d="M92.1618 89.8903C94.0938 90.2883 96.1975 92.5838 98.2449 96.1684C98.769 95.7622 99.149 93.8433 99.2722 92.9897C99.344 92.6633 93.2524 89.5866 92.1618 89.8903Z" fill="#DEDEDE"/>
</g>
<path d="M307.797 120.884C301.865 114.404 260.339 115.71 240.229 130.658C233.372 135.749 229.344 143.237 223.902 148.818C197.098 176.835 206.622 197.119 228.8 209.071C241.318 215.796 267.496 215.442 289.701 202.836C311.906 190.23 320.124 179.312 322.356 166.652C326.682 139.479 307.797 120.884 307.797 120.884ZM293.402 167.959C290.082 167.251 285.238 165.644 280.258 164.719C280.104 164.732 279.95 164.732 279.796 164.719C276.586 164.833 273.387 165.151 270.217 165.672C268.955 166.654 267.638 167.564 266.271 168.394C263.622 169.437 261.367 171.284 259.822 173.676C259.277 174.597 258.555 175.402 257.7 176.045C256.56 177.831 255.551 179.696 254.679 181.627C250.135 191.673 245.753 176.835 241.291 173.268C238.896 169.293 261.482 144.571 275.551 146.967C277.397 147.002 279.229 147.295 280.993 147.838L281.565 148.056C286.708 148.791 291.824 150.071 296.885 151.16C307.688 153.556 304.178 170.409 293.402 168.04V167.959Z" fill="#EE9843"/>
<g style="mix-blend-mode:multiply" opacity="0.65">
<path d="M306.872 120.203C298.409 114.54 259.523 116.309 240.23 130.658C233.372 135.749 229.345 143.237 223.902 148.818C202.949 170.6 204.228 187.862 216.283 200.005L217.399 200.985C222.841 201.883 228.882 200.985 233.508 201.366C241.672 202.265 249.836 210.787 257.999 206.539C265.7 202.51 271.333 202.428 279.769 201.638C287.361 200.903 289.756 191.891 297.294 190.067C300.341 189.359 306.655 189.55 307.008 185.166C307.015 183.073 307.489 181.008 308.396 179.122C311.934 173.105 321.077 173.459 318.846 165.291C316.941 158.457 318.056 151.078 321.567 147.049C319.227 132.319 309.702 123.361 306.872 120.203ZM293.266 168.04C289.946 167.333 285.103 165.726 280.123 164.8C279.969 164.814 279.814 164.814 279.66 164.8C276.45 164.914 273.251 165.233 270.081 165.753C268.82 166.736 267.502 167.645 266.136 168.476C263.487 169.518 261.231 171.366 259.686 173.758C259.141 174.679 258.42 175.484 257.564 176.127C256.425 177.912 255.415 179.778 254.543 181.708C252.339 186.555 250.217 185.629 248.067 182.961C245.128 181.218 242.216 173.894 239.25 171.525C236.855 167.578 259.441 142.828 273.51 145.224C275.355 145.272 277.185 145.565 278.953 146.096C279.159 146.161 279.359 146.243 279.551 146.341C284.694 147.049 289.81 148.328 294.872 149.444C296.844 149.809 298.604 150.909 299.797 152.521C306.818 157.122 303.008 170.164 293.402 168.04H293.266Z" fill="#D98B43"/>
</g>
<path d="M215.63 183.505C216.283 184.186 216.936 184.867 217.616 185.52L219.712 184.649C225.535 182.253 230.76 178.604 236.611 176.208L242.053 174.003C241.865 173.791 241.655 173.6 241.427 173.431C239.032 169.456 261.619 144.734 275.687 147.13C277.533 147.165 279.365 147.458 281.13 148.001L281.701 148.219C284.64 148.655 287.579 149.254 290.518 149.88C292.967 146.776 295.389 143.563 298.056 140.541C302.216 135.296 306.842 130.439 311.879 126.029C310.621 124.235 309.258 122.517 307.798 120.884C301.865 114.404 260.34 115.71 240.23 130.658C233.372 135.749 229.345 143.237 223.902 148.818C212.528 160.689 208.119 171.607 208.473 181.137C209.768 180.82 211.126 180.874 212.392 181.292C213.657 181.711 214.779 182.478 215.63 183.505Z" fill="#822A00"/>
<path d="M319.173 167.006C318.737 163.984 315.172 158.702 315.635 155.843C316.098 152.984 319.798 150.397 321.077 147.974C323.499 143.7 321.077 138.69 319.581 134.361C313.676 117.317 300.532 105.555 270.191 107.352C254.489 108.25 223.93 116.064 208.038 145.469C198.514 163.058 201.153 175.637 209.725 187.862C212.964 192.49 222.542 200.359 229.4 199.651C232.747 199.27 234.434 197.418 238.162 198.181C240.969 198.827 243.593 200.103 245.836 201.911C251.85 206.294 256.04 205.396 262.544 201.911C266.136 199.923 267.524 198.616 271.633 199.515C274.581 200.318 277.709 200.155 280.559 199.052C286.981 196.329 285.756 186.609 294.818 188.161C298.11 188.678 301.321 189.55 303.662 186.527C306.002 183.505 303.335 180.483 304.913 177.461C308.26 171.144 320.751 177.624 319.173 167.006ZM239.278 152.222C250.788 127.881 272.966 138.962 275.062 143.4C283.361 160.689 227.903 176.399 239.278 152.222Z" fill="#A73D22"/>
<g style="mix-blend-mode:screen" opacity="0.75">
<path d="M232.665 153.311C233.614 145.613 236.415 138.26 240.828 131.883C243.099 128.711 246.16 126.187 249.707 124.563C253.253 122.939 257.163 122.272 261.047 122.626C271.279 124.124 278.708 134.497 289.021 135.423C291.135 135.674 293.278 135.392 295.255 134.603C297.232 133.813 298.981 132.541 300.341 130.903C301.635 129.214 302.285 127.119 302.175 124.994C302.065 122.868 301.203 120.852 299.743 119.305C298.365 118.166 296.773 117.314 295.062 116.8C280.697 111.569 264.953 111.547 250.572 116.736C236.192 121.925 224.087 131.997 216.365 145.197C213.359 149.562 211.964 154.837 212.419 160.118C213.29 165.291 218.269 170.028 223.304 168.939C224.859 168.496 226.291 167.701 227.49 166.615C228.689 165.529 229.621 164.182 230.216 162.677C231.43 159.673 232.253 156.525 232.665 153.311Z" fill="#B1523A"/>
</g>
<g style="mix-blend-mode:screen" opacity="0.75">
<path d="M271.496 168.476C262.026 172.914 251.06 172.615 240.638 173.513C238.077 173.627 235.56 174.208 233.209 175.228C232.04 175.753 231.023 176.565 230.252 177.588C229.481 178.612 228.982 179.814 228.8 181.082C228.474 185.52 233.263 188.624 237.617 189.522C246.379 191.292 255.359 188.379 263.768 185.357C271.928 182.794 279.7 179.13 286.871 174.466C294.079 169.695 299.212 162.37 301.239 153.964C301.833 151.507 301.681 148.929 300.804 146.559C299.797 144.244 297.402 141.848 294.98 142.529C286.272 144.871 286.871 161.288 271.496 168.476Z" fill="#B1523A"/>
</g>
<path d="M286.163 118.161C285.343 118.11 284.527 118.309 283.823 118.733L278.816 121.102L280.258 123.661C282.749 122.014 285.632 121.056 288.612 120.884C288.068 119.713 287.388 118.461 286.163 118.161Z" fill="#CC3131"/>
<path d="M313.702 140.106C312.884 140.028 312.062 140.219 311.362 140.65L306.355 143.019L307.797 145.578C310.272 143.898 313.142 142.894 316.124 142.665C315.607 141.576 314.927 140.324 313.702 140.106Z" fill="#CC3131"/>
<path d="M311.852 149.608L306.219 147.784C303.757 150.596 301.131 153.26 298.355 155.761C300.813 156.169 303.095 157.296 304.913 159.001C306.815 155.586 309.147 152.429 311.852 149.608Z" fill="url(#paint1_linear_1_4465)"/>
<path d="M221.698 165.508L216.065 163.711C213.611 166.521 210.984 169.177 208.201 171.662C210.663 172.048 212.954 173.157 214.786 174.847C216.691 171.457 219.013 168.32 221.698 165.508Z" fill="url(#paint2_linear_1_4465)"/>
<path d="M278.381 176.998C277.595 176.583 276.71 176.394 275.823 176.454H270.707C270.272 178.278 269.809 180.075 269.346 181.899C272.819 180.812 276.474 180.432 280.095 180.783C280.104 180.065 279.955 179.354 279.659 178.7C279.362 178.046 278.926 177.465 278.381 176.998Z" fill="#FFCC00"/>
<path d="M291.361 143.7C290.524 143.261 289.58 143.072 288.639 143.155H283.551L282.163 148.601C285.614 147.548 289.243 147.205 292.83 147.593C292.88 146.877 292.775 146.158 292.521 145.486C292.267 144.814 291.872 144.204 291.361 143.7Z" fill="#FFCC00"/>
<path d="M223.63 151.105C223.63 152.63 223.875 154.155 223.984 155.707L234.488 153.365C233.892 152.219 233.664 150.916 233.835 149.635C230.498 150.501 227.076 150.994 223.63 151.105Z" fill="#14B661"/>
<path d="M241.046 129.242L232.61 132.864C232.285 134.292 232.221 135.768 232.42 137.22C235.474 135.354 238.796 133.967 242.271 133.109C241.505 131.962 241.081 130.621 241.046 129.242Z" fill="#CC3131"/>
<path d="M255.604 130.086L259.768 128.289C259.078 127.899 258.48 127.368 258.011 126.729C257.542 126.091 257.213 125.361 257.047 124.586C256.753 123.053 256.025 121.635 254.951 120.502L251.767 121.21C253.074 124.178 254.298 127.118 255.604 130.086Z" fill="#FFCC00"/>
<path d="M232.61 166.407L236.801 164.61C236.105 164.229 235.501 163.7 235.03 163.06C234.56 162.42 234.236 161.686 234.079 160.907C233.786 159.373 233.058 157.956 231.984 156.823L228.8 157.531L232.61 166.407Z" fill="#FFCC00"/>
<path d="M275.823 129.705L273.102 128.289L267.034 133.027L271.551 135.041L275.823 129.705Z" fill="url(#paint3_linear_1_4465)"/>
<path d="M248.285 188.379L245.563 186.963L239.495 191.673L244.039 193.688L248.285 188.379Z" fill="url(#paint4_linear_1_4465)"/>
<path d="M292.585 130.386C292.517 129.982 292.334 129.606 292.06 129.302C291.785 128.998 291.429 128.779 291.034 128.671C290.637 128.563 290.215 128.587 289.832 128.739C289.45 128.891 289.127 129.163 288.911 129.515C288.788 129.759 288.688 130.014 288.612 130.277C287.905 132.846 287.849 135.55 288.449 138.146C289.744 137.528 291.196 137.319 292.612 137.547C292.031 136.181 291.888 134.668 292.204 133.217C292.528 132.311 292.658 131.346 292.585 130.386Z" fill="#14B661"/>
<path d="M272.803 184.54C272.721 184.138 272.53 183.765 272.252 183.463C271.974 183.161 271.619 182.94 271.225 182.825C270.828 182.73 270.412 182.764 270.036 182.92C269.66 183.077 269.342 183.348 269.13 183.696C268.975 183.925 268.873 184.185 268.83 184.458C268.123 187.027 268.067 189.731 268.667 192.327C269.952 191.677 271.408 191.449 272.83 191.673C272.249 190.298 272.106 188.777 272.422 187.317C272.729 186.425 272.859 185.482 272.803 184.54Z" fill="#14B661"/>
<path d="M240.611 181.409L244.747 182.035C245.183 179.312 245.618 176.726 246.081 174.058L242.87 175.337C242.135 177.298 241.373 179.367 240.611 181.409Z" fill="#CC3131"/>
<path d="M218.651 177.842C218.885 177.991 219.166 178.049 219.44 178.005L224.637 177.597C224.338 174.419 224.69 171.214 225.671 168.177C224.17 168.965 222.52 169.429 220.828 169.538C220.12 171.961 219.385 174.384 218.678 176.807C218.487 177.161 218.406 177.597 218.651 177.842Z" fill="#FFCC00"/>
<path d="M300.858 170.627C300.967 170.705 301.091 170.76 301.222 170.788C301.353 170.816 301.489 170.817 301.62 170.79L306.817 170.382C306.52 167.21 306.843 164.01 307.77 160.961C306.28 161.754 304.638 162.218 302.953 162.323C302.246 164.746 301.511 167.196 300.776 169.62C300.695 169.892 300.613 170.382 300.858 170.627Z" fill="#FFCC00"/>
<path d="M294.98 175.773C294.959 172.953 295.563 170.163 296.749 167.605H292.559L289.837 175.119L294.98 175.773Z" fill="#14B661"/>
<path d="M254.109 194.695L258.816 194.913C259.143 192.038 259.717 189.196 260.531 186.419C260.28 186.231 259.985 186.113 259.675 186.075C259.365 186.036 259.05 186.08 258.762 186.201L254.109 194.695Z" fill="#6BC3C3"/>
<path d="M211.575 153.883L209.344 161.234L213.507 161.561L214.868 153.392L211.575 153.883Z" fill="#CC3131"/>
<path d="M223.958 139.479C223.034 139.601 222.161 139.968 221.427 140.541L217.427 143.264L220.148 146.613C222.009 144.234 224.483 142.407 227.305 141.331C226.466 140.308 225.269 139.646 223.958 139.479Z" fill="#6BC3C3"/>
<path d="M235.739 174.793C234.816 174.915 233.942 175.281 233.208 175.855L229.208 178.577L231.929 181.926C233.839 179.49 236.38 177.625 239.277 176.535C238.368 175.517 237.1 174.892 235.739 174.793Z" fill="#6BC3C3"/>
<path d="M305.948 135.45C306.392 135.62 306.86 135.721 307.335 135.749C307.686 135.735 308.027 135.627 308.323 135.438C308.619 135.248 308.86 134.984 309.02 134.671C309.181 134.358 309.255 134.008 309.237 133.657C309.218 133.306 309.106 132.967 308.914 132.673C306.548 131.796 304.285 130.664 302.165 129.297C301.049 130.494 299.934 131.692 298.845 132.918L305.948 135.45Z" fill="#6BC3C3"/>
<path d="M284.775 171.117C285.214 171.307 285.685 171.409 286.163 171.417C286.518 171.411 286.865 171.309 287.166 171.121C287.467 170.934 287.712 170.668 287.874 170.352C288.036 170.036 288.11 169.682 288.086 169.327C288.063 168.973 287.944 168.632 287.742 168.34C285.379 167.457 283.116 166.326 280.993 164.964L277.673 168.585L284.775 171.117Z" fill="#6BC3C3"/>
<path d="M273.21 126.955C273.649 127.147 274.12 127.258 274.598 127.282C274.941 127.28 275.278 127.191 275.577 127.025C275.877 126.858 276.13 126.619 276.313 126.329C276.492 126.024 276.587 125.676 276.587 125.322C276.587 124.967 276.492 124.619 276.313 124.314C273.903 123.417 271.595 122.267 269.428 120.884L266.108 124.423L273.21 126.955Z" fill="#6BC3C3"/>
<path d="M243.413 144.135C243.85 144.331 244.323 144.433 244.801 144.435C245.156 144.427 245.502 144.324 245.803 144.138C246.104 143.951 246.35 143.687 246.516 143.373C246.69 143.066 246.781 142.719 246.781 142.366C246.781 142.012 246.69 141.665 246.516 141.358C244.15 140.481 241.887 139.349 239.767 137.982L236.447 141.603L243.413 144.135Z" fill="#6BC3C3"/>
<path d="M270.68 114.077C268.664 115.334 266.414 116.167 264.067 116.527C264.23 117.725 264.394 118.923 264.53 120.121C267.179 118.668 270.032 117.622 272.993 117.017C271.908 116.331 271.091 115.293 270.68 114.077Z" fill="#14B661"/>
<path d="M252.883 170.273C251.595 170.189 250.34 169.833 249.2 169.227C248.06 168.622 247.061 167.781 246.27 166.761L243.141 170.082C246.059 171.117 248.81 172.576 251.305 174.411C251.876 173.05 252.393 171.662 252.883 170.273Z" fill="url(#paint5_linear_1_4465)"/>
<path d="M246.978 123.252C245.691 123.165 244.437 122.807 243.297 122.202C242.158 121.597 241.159 120.758 240.366 119.74L237.236 123.034C240.146 124.102 242.893 125.568 245.4 127.391C245.89 126.002 246.434 124.641 246.978 123.252Z" fill="url(#paint6_linear_1_4465)"/>
<path d="M293.021 182.743C291.735 182.653 290.482 182.293 289.343 181.688C288.204 181.083 287.204 180.246 286.409 179.231L283.279 182.525C286.191 183.587 288.94 185.053 291.443 186.882L293.021 182.743Z" fill="url(#paint7_linear_1_4465)"/>
<path d="M280.911 163.248C281.122 163.508 281.394 163.712 281.703 163.84C282.011 163.968 282.347 164.018 282.68 163.984C283.014 163.938 283.33 163.807 283.598 163.601C283.865 163.396 284.074 163.124 284.204 162.813C284.041 160.526 283.904 158.239 283.741 155.952C282.593 156.272 281.488 156.729 280.449 157.313C279.891 158.964 279.891 160.753 280.449 162.404C280.574 162.701 280.729 162.983 280.911 163.248Z" fill="#CC3131"/>
<path d="M264.775 166.461C264.53 166.135 263.986 166.216 263.605 166.461L260.666 167.169C260.04 169.701 259.442 172.233 258.816 174.793H262.734C263.442 172.342 264.122 169.865 264.802 167.387C264.874 167.242 264.91 167.082 264.905 166.921C264.9 166.759 264.856 166.601 264.775 166.461Z" fill="#14B661"/>
<path d="M223.604 188.951C226.691 188.745 229.789 189.105 232.747 190.013C233.046 188.324 233.373 186.636 233.699 184.948C230.984 185.192 228.252 185.192 225.536 184.948C224.883 186.391 224.23 187.671 223.604 188.951Z" fill="#14B661"/>
<path d="M188.174 224.571C183.225 227.934 182.769 235.461 178.86 239.991C174.952 244.522 168.331 245.627 165.442 250.659C162.553 255.692 165.186 262.756 165.554 268.92C165.369 274.895 164.315 280.811 162.425 286.482C161.062 292.218 160.546 298.608 163.709 303.308C165.641 305.827 168.24 307.752 171.212 308.864C174.184 309.976 177.409 310.231 180.519 309.598C186.84 308.194 192.848 305.637 198.244 302.056C214.239 293.371 229.495 283.387 243.857 272.205C247.218 269.869 250.044 266.847 252.15 263.336C253.139 261.598 253.61 259.613 253.505 257.616C253.401 255.618 252.725 253.693 251.559 252.069C249.418 249.718 245.951 249.125 243.535 247.064C239.151 243.358 238.691 237.169 233.208 234.126C228.466 232.11 223.352 231.118 218.2 231.217C214.994 231.076 211.827 230.455 208.806 229.374C205.836 228.154 203.329 225.937 200.199 224.576C198.356 223.568 196.289 223.039 194.187 223.038C192.086 223.037 190.019 223.564 188.174 224.571Z" fill="#D2923D"/>
<g style="mix-blend-mode:screen" opacity="0.32">
<path d="M185.025 267.942C193.961 264.453 191.743 258.555 195.374 251.478C197.32 247.353 200.408 243.874 204.272 241.452C208.268 238.75 213.093 237.558 217.886 238.089C223.324 239.076 227.457 242.979 232.737 244.188C235.39 244.734 238.148 244.469 240.649 243.427C238.546 240.065 237.192 236.243 233.264 234.042C228.522 232.026 223.408 231.035 218.256 231.133C215.05 230.992 211.884 230.371 208.862 229.29C205.892 228.071 203.385 225.853 200.255 224.492C198.407 223.507 196.342 223.001 194.248 223.019C192.154 223.037 190.098 223.579 188.267 224.596C183.318 227.959 182.862 235.486 178.954 240.017C175.045 244.547 168.425 245.652 165.535 250.684C162.646 255.717 164.871 261.716 165.516 267.459C171.714 270.124 178.701 270.297 185.025 267.942Z" fill="#A24B27"/>
</g>
<g style="mix-blend-mode:multiply" opacity="0.55">
<path d="M171.991 277.657C177.484 276.087 186.52 274.076 186.511 267.184C183.216 270.53 178.934 272.73 174.296 273.458C171.148 273.653 168.039 272.672 165.573 270.706C165.426 273.915 164.921 277.098 164.067 280.195C166.618 279.523 169.262 278.38 171.991 277.657Z" fill="#B9866E"/>
</g>
<g style="mix-blend-mode:multiply" opacity="0.55">
<path d="M193.171 244.529C194.533 243.591 195.958 242.748 197.435 242.005C200.851 240.96 204.177 239.641 207.382 238.061C209.859 236.065 211.712 233.401 212.721 230.384C211.358 230.153 210.019 229.796 208.722 229.319C207.724 228.879 206.758 228.369 205.833 227.791C205.03 230.308 203.872 232.697 202.395 234.886C199.836 238.556 194.208 240.387 193.171 244.529Z" fill="#B9866E"/>
</g>
<g style="mix-blend-mode:multiply" opacity="0.55">
<path d="M223.21 262.387C218.267 264.367 212.526 262.541 210.318 269.47C209.611 272.368 208.119 275.016 206.006 277.123C205.614 277.48 205.161 277.821 204.739 278.17C211.13 278.917 215.339 270.906 219.931 267.151C222.684 265.377 225.116 263.149 227.123 260.561C225.852 261.239 224.546 261.849 223.21 262.387Z" fill="#B9866E"/>
</g>
<g style="mix-blend-mode:multiply" opacity="0.55">
<path d="M216.001 246.521C215.935 246.723 215.881 246.929 215.837 247.137C218.283 246.219 220.82 245.568 223.406 245.197C228.658 244.259 233.439 241.57 236.97 237.568C235.946 236.114 234.615 234.904 233.07 234.024C230.89 232.904 228.535 232.165 226.107 231.839C225.901 234.549 224.902 237.138 223.234 239.283C221.153 242.025 217.529 243.632 216.001 246.521Z" fill="#B9866E"/>
</g>
<g style="mix-blend-mode:multiply" opacity="0.55">
<path d="M251.376 252.021C251.087 257.68 247.716 262.42 239.627 264.089C231.538 265.759 230.863 273.986 224.101 277.229C217.339 280.472 210.589 278.476 206.434 284.424C205.087 286.364 203.293 287.951 201.205 289.053C199.117 290.154 196.795 290.739 194.435 290.756C189.73 290.854 188.102 297.212 184.753 299.518C182.743 300.91 180.56 302.035 178.26 302.865C170.518 305.584 165.533 302.278 161.554 296.932C161.731 299.238 162.459 301.467 163.677 303.432C165.626 305.934 168.238 307.839 171.215 308.929C174.192 310.019 177.416 310.251 180.519 309.599C186.841 308.195 192.849 305.638 198.245 302.057C214.24 293.372 229.496 283.388 243.858 272.205C247.218 269.87 250.045 266.847 252.151 263.337C253.14 261.599 253.611 259.614 253.506 257.616C253.402 255.619 252.726 253.694 251.56 252.07L251.376 252.021Z" fill="#B9866E"/>
</g>
<path d="M243.717 266.794C243.247 269.174 243.055 271.134 240.828 272.321C238.448 273.61 235.658 273.909 233.06 273.153C232.702 276.355 233.281 278.388 229.868 279.82C227.489 280.817 224.915 281.259 222.341 281.112C221.726 283.42 221.993 284.645 219.757 285.863C216.967 287.451 213.718 288.04 210.548 287.531C208.213 293.206 203.695 296.684 198.838 295.127C198.405 296.909 197.284 298.447 195.721 299.406C192.702 301.09 189.207 301.714 185.793 301.179C182.378 306.204 180.192 308.721 174.585 308.744L217.107 345.421C234.083 341.381 249.687 332.91 262.328 320.872L250.263 264.483C248.448 266.047 246.111 266.872 243.717 266.794Z" fill="#BE4C1B"/>
<path d="M185.83 305.739C194.069 319.974 205.323 332.233 218.802 341.653C218.802 341.653 203.679 311.713 185.83 305.739Z" fill="#8F3300"/>
<path d="M200.143 299.133C200.143 299.133 208.126 323.842 228.468 338.392C228.468 338.392 216.073 306.871 200.143 299.133Z" fill="#8F3300"/>
<path d="M212.672 291.558C216.993 307.502 225.719 321.904 237.849 333.111C237.849 333.111 226.292 300.791 212.672 291.558Z" fill="#8F3300"/>
<path d="M224.571 285.233C224.571 285.233 229.079 311.852 244.977 328.119C244.977 328.119 236.926 296.865 224.571 285.233Z" fill="#8F3300"/>
<path d="M235.92 279.487C237.157 295.232 242.324 310.415 250.947 323.643C250.947 323.643 247.226 295.058 235.92 279.487Z" fill="#8F3300"/>
<path d="M245.537 272.454C245.919 288.69 249.598 304.677 256.349 319.445C256.349 319.445 255.161 286.919 245.537 272.454Z" fill="#8F3300"/>
<g style="mix-blend-mode:multiply" opacity="0.5">
<path d="M234.16 314.425C225.457 316.297 216.386 315.369 208.243 311.774C203.975 310.11 199.739 308.323 195.592 306.328C193.161 305.186 190.851 303.713 188.486 302.325C185.302 306.983 183.327 309.325 178.027 309.43L217.665 343.328C233.418 339.535 247.889 331.64 259.609 320.445L255.631 301.978C249.57 307.783 242.208 312.051 234.16 314.425Z" fill="#9E5838"/>
</g>
<g style="mix-blend-mode:screen" opacity="0.32">
<path d="M218.964 234.783C218.679 234.708 218.382 234.694 218.091 234.741C217.8 234.789 217.523 234.897 217.276 235.059L206.874 239.97C205.304 240.615 203.833 241.477 202.502 242.53C201.144 243.619 200.264 245.194 200.047 246.921C199.952 247.727 200.121 248.543 200.527 249.245C200.934 249.948 201.558 250.5 202.304 250.818C203.04 250.947 203.797 250.874 204.494 250.607C205.192 250.34 205.804 249.889 206.267 249.302C207.227 248.123 208.009 246.81 208.59 245.405C209.199 243.995 210.097 242.729 211.227 241.689C213.643 239.794 217.431 240.045 219.02 237.172C219.748 236.541 219.854 235.152 218.964 234.783Z" fill="#B27B60"/>
</g>
<g style="mix-blend-mode:screen" opacity="0.32">
<path d="M169.314 257.526L168.478 262.15C168.205 263.139 168.224 264.185 168.532 265.164C169.035 265.916 169.813 266.442 170.699 266.629C171.585 266.816 172.509 266.649 173.274 266.163C176.008 264.683 177.125 261.354 178.597 258.548C180.231 255.554 182.53 252.974 185.317 251.008C186.317 250.403 187.248 249.689 188.092 248.879C188.526 248.467 188.861 247.962 189.073 247.402C189.285 246.842 189.368 246.241 189.316 245.645C189.134 244.926 188.722 244.287 188.144 243.824C187.566 243.36 186.852 243.098 186.112 243.077C184.62 243.057 183.144 243.386 181.803 244.039C179.548 244.878 177.385 245.948 175.351 247.233C173.33 248.558 171.701 250.401 170.634 252.57C169.988 254.16 169.545 255.825 169.314 257.526Z" fill="#B27B60"/>
</g>
<g style="mix-blend-mode:screen" opacity="0.32">
<path d="M228.478 256.834C227.269 257.518 226.129 258.319 225.074 259.224C222.507 261.09 219.413 262.091 216.24 262.08C219.184 259.729 221.717 256.905 223.738 253.725C225.766 250.529 228.801 248.101 232.363 246.825C233.302 246.564 234.288 246.523 235.245 246.703C236.202 246.884 237.105 247.282 237.885 247.867C238.626 248.542 239.122 249.446 239.295 250.435C239.467 251.424 239.305 252.442 238.835 253.329C238.275 254.087 237.553 254.712 236.722 255.158C235.891 255.603 234.972 255.859 234.03 255.906C232.142 255.92 230.268 256.234 228.478 256.834Z" fill="#B27B60"/>
</g>
<g style="mix-blend-mode:screen" opacity="0.32">
<path d="M193.085 268.11C193.388 268.646 193.827 269.091 194.359 269.4C194.89 269.71 195.494 269.872 196.109 269.872C197.356 269.863 198.58 269.53 199.661 268.906C204.175 266.052 207.945 262.162 210.657 257.56C211.288 256.673 211.912 255.323 211.151 254.592C210.908 254.384 210.621 254.234 210.312 254.151C210.004 254.069 209.68 254.057 209.366 254.117C203.754 255.11 198.644 257.98 194.875 262.257C194.113 263.083 193.502 264.036 193.07 265.073C192.871 265.555 192.769 266.072 192.772 266.593C192.774 267.115 192.881 267.631 193.085 268.11Z" fill="#B27B60"/>
</g>
<g style="mix-blend-mode:screen" opacity="0.32">
<path d="M177.938 282.175C176.588 283.046 175.148 283.768 173.641 284.327C171.649 284.775 169.728 285.495 167.932 286.466C167.078 287.091 166.405 287.931 165.979 288.9C165.553 289.869 165.39 290.933 165.506 291.985C165.654 293.009 166.081 293.974 166.74 294.771C167.4 295.569 168.266 296.17 169.244 296.508C170.355 296.793 171.514 296.831 172.641 296.618C173.768 296.406 174.835 295.948 175.766 295.278C177.632 293.899 179.329 292.303 180.821 290.525C182.312 288.73 184.131 287.234 186.18 286.117C187.837 285.339 189.765 285.028 191.368 284.203C192.229 283.86 192.985 283.298 193.56 282.572C194.135 281.846 194.509 280.981 194.645 280.065C194.638 279.314 194.411 278.582 193.99 277.959C193.57 277.337 192.976 276.853 192.282 276.567C190.862 276.035 189.298 276.027 187.872 276.546C186.409 277.11 185.019 277.846 183.73 278.739C181.843 279.885 179.886 281.046 177.938 282.175Z" fill="#B27B60"/>
</g>
<path d="M197.977 230.941L197.362 230.777C197.047 230.499 196.672 230.297 196.266 230.189C195.861 230.081 195.435 230.069 195.024 230.154C194.209 230.374 193.452 230.769 192.805 231.31C191.609 232.205 190.581 233.304 189.766 234.556C189.409 234.99 189.174 235.512 189.084 236.067C188.994 236.622 189.052 237.191 189.253 237.716C189.429 237.975 189.666 238.188 189.942 238.336C190.218 238.484 190.526 238.564 190.839 238.567C191.458 238.587 192.075 238.47 192.644 238.223C194.257 237.657 195.727 236.743 196.948 235.546C197.786 234.794 198.346 233.782 198.538 232.672C198.523 231.613 199.003 231.049 197.977 230.941Z" fill="#652700"/>
<path d="M166.985 259.84C167.908 260.086 168.911 259.661 169.7 259.047C170.579 258.458 171.322 257.69 171.882 256.793C172.18 256.329 172.379 255.809 172.467 255.266C172.555 254.722 172.53 254.166 172.395 253.632C172.257 253.128 171.956 252.685 171.538 252.37C171.121 252.056 170.611 251.89 170.089 251.897C170.046 251.857 169.995 251.826 169.939 251.806C169.884 251.786 169.825 251.777 169.766 251.779C169.707 251.782 169.649 251.797 169.596 251.822C169.542 251.847 169.495 251.883 169.455 251.926L168.348 252.126C167.391 252.704 166.629 253.555 166.159 254.569C165.689 255.584 165.533 256.716 165.711 257.819C165.736 258.236 165.866 258.64 166.089 258.993C166.312 259.346 166.62 259.637 166.985 259.84Z" fill="#B27B60"/>
<path d="M223.042 251.265C222.11 250.791 221.076 250.553 220.03 250.574C218.984 250.594 217.96 250.872 217.047 251.383C216.36 251.746 215.784 252.287 215.378 252.949C214.918 253.555 214.715 254.318 214.812 255.073C214.965 255.682 215.315 256.222 215.808 256.61C216.301 256.998 216.909 257.211 217.536 257.216C218.797 257.204 220.03 256.849 221.105 256.189C221.698 255.968 222.236 255.62 222.681 255.169C223.126 254.718 223.466 254.174 223.678 253.577C224.135 251.985 224.105 251.977 223.042 251.265Z" fill="#652700"/>
<path d="M200.968 245.814C200.151 245.61 199.29 245.673 198.511 245.994C197.732 246.314 197.076 246.875 196.638 247.595C195.76 249.08 195.257 250.756 195.173 252.479C195.052 252.953 195.041 253.449 195.142 253.927C195.243 254.406 195.453 254.855 195.756 255.239C196.632 256.033 198.006 255.575 199.128 254.95C200.951 253.779 202.394 252.101 203.28 250.122C203.607 249.591 203.784 248.981 203.794 248.357C203.804 247.733 203.645 247.118 203.335 246.576C202.441 245.481 202.168 246.134 200.968 245.814Z" fill="#652700"/>
<path d="M170.425 289.108C171.007 287.788 171.38 286.386 171.532 284.952C171.624 284.638 171.648 284.308 171.604 283.984C171.56 283.66 171.448 283.348 171.275 283.071C171.139 282.943 170.976 282.847 170.799 282.789C170.621 282.731 170.433 282.713 170.248 282.736C170.062 282.759 169.884 282.822 169.726 282.922C169.568 283.021 169.434 283.154 169.333 283.312L168.621 283.386L168.467 283.345L168.264 283.488C167.425 283.598 166.655 284.016 166.107 284.661C165.567 285.314 165.119 286.037 164.776 286.812C164.429 287.359 164.202 287.973 164.111 288.613C164.02 289.254 164.067 289.907 164.247 290.529C164.555 291.124 165.064 291.591 165.684 291.847C166.304 292.102 166.994 292.13 167.632 291.924C168.27 291.679 168.848 291.301 169.33 290.815C169.811 290.33 170.184 289.748 170.425 289.108Z" fill="#652700"/>
<path d="M184.331 295.285C185.061 295.596 185.859 295.716 186.648 295.632C187.438 295.548 188.193 295.263 188.841 294.804C190.157 293.861 191.294 292.69 192.2 291.347C192.555 290.96 192.833 290.508 193.016 290.015C193.095 289.774 193.107 289.517 193.051 289.27C192.995 289.023 192.873 288.795 192.698 288.612C192.522 288.462 192.314 288.354 192.091 288.294C191.867 288.235 191.633 288.226 191.406 288.268C190.949 288.377 190.497 288.586 190.048 288.664C189.04 288.648 188.037 288.503 187.066 288.233C186.202 288.155 185.335 288.35 184.586 288.788C183.837 289.227 183.244 289.888 182.888 290.68C182.523 291.492 182.469 292.408 182.735 293.257C183.001 294.106 183.569 294.827 184.331 295.285Z" fill="#652700"/>
<path d="M204.258 274.284C204.753 273.586 205.164 272.833 205.482 272.039C205.606 271.814 205.673 271.562 205.679 271.305C205.684 271.048 205.627 270.794 205.513 270.563C205.096 270.024 204.251 270.227 203.607 270.419L200.439 271.553C199.656 271.791 198.91 272.136 198.222 272.578C197.531 273.037 197.046 273.747 196.87 274.558C196.798 275.131 196.921 275.711 197.221 276.204C197.52 276.697 197.978 277.074 198.52 277.272C199.085 277.461 199.686 277.519 200.277 277.443C200.868 277.366 201.434 277.156 201.933 276.83C202.873 276.148 203.664 275.282 204.258 274.284Z" fill="#652700"/>
<path d="M221.712 273.823C221.528 273.171 221.097 272.616 220.512 272.276C219.926 271.935 219.231 271.836 218.573 271.998C217.89 272.195 217.263 272.551 216.743 273.037C216.224 273.524 215.828 274.127 215.588 274.796C215.093 276.106 214.91 277.514 215.053 278.907C215.026 279.132 215.051 279.36 215.125 279.574C215.2 279.788 215.321 279.982 215.482 280.142C215.727 280.276 216.003 280.343 216.282 280.336C216.562 280.33 216.835 280.25 217.073 280.104C218.79 279.362 220.212 278.071 221.115 276.433C221.619 275.663 221.831 274.736 221.712 273.823Z" fill="#652700"/>
<path d="M242.095 259.274C242.751 259.051 243.346 258.679 243.834 258.188C244.338 257.668 244.626 256.977 244.641 256.253C244.657 255.53 244.398 254.827 243.918 254.287C243.5 253.927 243.006 253.667 242.473 253.525C241.94 253.383 241.382 253.363 240.841 253.467C239.429 253.659 238.082 254.182 236.909 254.991C236.027 255.551 235.337 256.369 234.934 257.334C234.734 257.794 234.68 258.304 234.778 258.796C234.877 259.288 235.124 259.738 235.487 260.085C235.896 260.336 236.357 260.491 236.836 260.539C237.314 260.586 237.796 260.525 238.247 260.359C239.561 260.119 240.849 259.756 242.095 259.274Z" fill="#652700"/>
<path d="M183.866 259.918C183.18 259.709 182.459 259.64 181.746 259.716C180.554 260.081 179.495 260.787 178.701 261.747C177.906 262.707 177.41 263.88 177.275 265.119C177.187 265.566 177.213 266.028 177.351 266.463C177.488 266.897 177.733 267.289 178.063 267.604C178.339 267.806 178.662 267.935 179.002 267.979C179.341 268.024 179.686 267.982 180.006 267.857C180.669 267.611 181.269 267.219 181.761 266.709C182.605 265.906 183.336 264.991 183.935 263.992C184.311 263.4 184.575 262.744 184.714 262.056C184.77 261.718 184.756 261.372 184.675 261.039C184.594 260.705 184.447 260.392 184.242 260.117C183.788 259.469 184.443 259.61 183.866 259.918Z" fill="#652700"/>
<path d="M168.215 260.167C169.686 259.762 171.028 258.984 172.111 257.908C172.633 257.347 173.009 256.666 173.206 255.925C173.403 255.185 173.416 254.407 173.243 253.66C173.031 253.023 172.636 252.461 172.109 252.046C171.581 251.63 170.944 251.378 170.275 251.32L169.998 251.246C169.293 251.473 168.654 251.867 168.135 252.395C167.616 252.923 167.232 253.568 167.016 254.276C166.591 255.7 166.386 257.179 166.407 258.664C166.36 258.937 166.375 259.218 166.453 259.484C166.53 259.751 166.668 259.996 166.855 260.201C167.212 260.592 167.694 260.391 168.215 260.167Z" fill="#652700"/>
<path d="M126.259 229.756C123.347 228.912 120.435 231.248 117.419 231.217C114.403 231.186 111.737 228.951 108.861 229.483C105.984 230.014 104.159 233.471 101.919 235.629C99.5329 237.617 96.86 239.232 93.9912 240.421C91.2667 241.832 88.5281 243.909 87.6586 246.891C87.32 248.591 87.4581 250.351 88.0576 251.977C88.6572 253.603 89.6948 255.031 91.0555 256.104C93.8052 258.234 96.9341 259.823 100.276 260.786C109.23 264.218 118.46 266.881 127.866 268.744C129.904 269.217 132.022 269.221 134.062 268.756C135.075 268.514 135.993 267.974 136.697 267.205C137.402 266.437 137.86 265.475 138.014 264.444C138.13 262.702 137.137 261.119 137.041 259.385C136.886 256.309 138.977 253.939 138.136 250.741C137.248 248.159 135.847 245.782 134.018 243.755C132.973 242.433 132.118 240.97 131.479 239.411C130.892 237.808 130.845 236.098 130.349 234.472C130.101 233.413 129.599 232.43 128.886 231.609C128.174 230.787 127.272 230.151 126.259 229.756Z" fill="#993A12"/>
<g style="mix-blend-mode:screen" opacity="0.32">
<path d="M108.932 243.193C113.343 245.509 114.811 242.656 118.729 241.659C120.957 241.024 123.323 241.067 125.525 241.783C127.925 242.479 130.011 243.985 131.428 246.044C132.865 248.562 132.937 251.593 134.309 254.068C135.006 255.309 136.049 256.32 137.311 256.978C137.814 254.951 138.737 253.066 138.104 250.719C137.216 248.137 135.815 245.761 133.986 243.733C132.941 242.411 132.086 240.949 131.447 239.389C130.86 237.786 130.813 236.077 130.317 234.45C130.066 233.402 129.566 232.429 128.859 231.615C128.153 230.8 127.26 230.169 126.257 229.773C123.345 228.929 120.433 231.266 117.417 231.235C114.401 231.204 111.735 228.969 108.859 229.5C105.982 230.031 104.418 232.96 102.452 235.17C103.527 238.564 105.841 241.428 108.932 243.193Z" fill="#A24B27"/>
</g>
<g style="mix-blend-mode:multiply" opacity="0.55">
<path d="M100.763 241.297C103.272 242.967 107.199 245.924 109.821 243.516C107.34 243.336 104.986 242.347 103.12 240.7C101.949 239.503 101.262 237.914 101.193 236.24C99.8783 237.315 98.4364 238.223 96.8998 238.945C98.2183 239.762 99.5153 240.471 100.763 241.297Z" fill="#8C3A12"/>
</g>
<g style="mix-blend-mode:multiply" opacity="0.55">
<path d="M120.616 238.403C121.434 238.63 122.238 238.908 123.021 239.235C124.553 240.237 126.162 241.116 127.832 241.864C129.387 242.152 130.993 241.97 132.445 241.342C132.079 240.742 131.759 240.114 131.489 239.465C131.303 238.917 131.151 238.358 131.034 237.791C129.834 238.311 128.566 238.659 127.269 238.825C125.104 239.007 122.497 237.412 120.616 238.403Z" fill="#8C3A12"/>
</g>
<g style="mix-blend-mode:multiply" opacity="0.55">
<path d="M124.321 256.684C121.889 255.374 120.544 252.411 117.145 254.018C115.794 254.759 114.258 255.095 112.721 254.985L111.874 254.878C113.809 257.758 118.343 256.611 121.367 257.135C122.979 257.647 124.671 257.862 126.36 257.768C125.656 257.455 124.974 257.093 124.321 256.684Z" fill="#8C3A12"/>
</g>
<g style="mix-blend-mode:multiply" opacity="0.55">
<path d="M127.696 248.206L127.384 248.307C128.589 248.987 129.717 249.795 130.748 250.718C132.848 252.476 135.486 253.461 138.224 253.51C138.414 252.583 138.392 251.625 138.158 250.709C137.818 249.449 137.276 248.253 136.553 247.168C135.505 248.024 134.211 248.525 132.86 248.597C131.162 248.698 129.327 247.798 127.696 248.206Z" fill="#8C3A12"/>
</g>
<path d="M138.015 264.444C135.823 266.362 132.882 266.71 129.433 264.007C125.983 261.303 122.621 264.004 119.103 262.399C115.779 260.924 113.901 257.313 110.141 257.75C108.898 257.903 107.635 257.746 106.467 257.291C105.299 256.837 104.262 256.099 103.449 255.145C101.785 253.178 98.71 254.861 96.5377 254.269C95.2764 253.938 94.0643 253.442 92.9326 252.794C89.1431 250.557 88.7427 247.344 89.5051 243.822C88.6369 244.715 87.9936 245.801 87.6286 246.992C87.29 248.692 87.4281 250.452 88.0276 252.079C88.6272 253.705 89.6647 255.133 91.0255 256.205C93.7752 258.336 96.904 259.924 100.246 260.887C109.2 264.32 118.43 266.982 127.836 268.846C129.874 269.319 131.992 269.323 134.032 268.858C135.065 268.614 136 268.061 136.712 267.273C137.423 266.484 137.878 265.498 138.015 264.444Z" fill="#792C12"/>
<path d="M129.834 266.657C128.783 267.332 127.913 267.96 126.743 267.495C125.392 266.961 124.303 265.922 123.704 264.598C122.382 265.607 121.8 266.605 120.051 265.716C118.81 265.105 117.722 264.222 116.867 263.134C115.732 263.64 115.39 264.264 114.116 263.787C112.498 263.202 111.133 262.073 110.255 260.592C107.2 261.698 104.255 261.114 103.177 258.536C102.752 258.761 102.287 258.899 101.808 258.941C101.329 258.983 100.847 258.928 100.39 258.78C98.6519 258.129 97.1808 256.916 96.2092 255.334C93.0155 255.737 91.2419 255.741 89.2715 253.419L89.4007 285.229C97.0637 290.926 106.177 294.346 115.696 295.096L133.101 268.582C132.457 268.492 131.836 268.275 131.276 267.945C130.715 267.615 130.225 267.177 129.834 266.657Z" fill="#BE4C1B"/>
<path d="M94.4584 256.957C91.5601 265.805 90.5593 275.165 91.5212 284.426C91.5212 284.426 98.3299 266.582 94.4584 256.957Z" fill="#8F3300"/>
<path d="M102.089 260.471C102.089 260.471 94.9831 273.043 96.3231 287.266C96.3231 287.266 104.675 269.986 102.089 260.471Z" fill="#8F3300"/>
<path d="M109.454 262.897C104.598 270.832 101.966 279.927 101.833 289.228C101.833 289.228 110.654 271.99 109.454 262.897Z" fill="#8F3300"/>
<path d="M116.109 265.515C116.109 265.515 107.272 277.341 106.46 290.395C106.46 290.395 115.963 274.982 116.109 265.515Z" fill="#8F3300"/>
<path d="M122.296 268.091C116.506 274.697 112.427 282.625 110.416 291.177C110.416 291.177 120.331 278.609 122.296 268.091Z" fill="#8F3300"/>
<path d="M128.351 269.491C122.122 275.915 117.252 283.53 114.032 291.881C114.032 291.881 126.373 278.866 128.351 269.491Z" fill="#8F3300"/>
<g style="mix-blend-mode:multiply" opacity="0.5">
<path d="M108.07 280.463C104.17 277.433 101.316 273.257 99.9103 268.521C99.0742 266.114 98.2944 263.679 97.6247 261.205C97.2449 259.769 97.0121 258.282 96.7447 256.79C93.7823 257.17 92.1318 257.171 90.2972 255.024L90.4153 284.567C97.5389 289.856 106.008 293.029 114.852 293.724L120.683 284.837C116.176 284.472 111.836 282.967 108.07 280.463Z" fill="#9E5838"/>
</g>
<g style="mix-blend-mode:screen" opacity="0.32">
<path d="M133.065 245.32C132.918 245.049 132.675 244.843 132.383 244.742L127.004 242.304C126.23 241.904 125.404 241.616 124.549 241.448C124.123 241.36 123.683 241.362 123.257 241.453C122.832 241.544 122.43 241.723 122.077 241.978C121.729 242.241 121.479 242.613 121.365 243.034C121.252 243.455 121.281 243.902 121.449 244.305C121.65 244.632 121.933 244.901 122.27 245.085C122.607 245.269 122.985 245.363 123.369 245.356C124.141 245.332 124.904 245.192 125.634 244.941C126.365 244.691 127.144 244.615 127.909 244.72C129.434 245.018 130.654 246.613 132.197 246.352C132.707 246.206 133.233 245.798 133.065 245.32Z" fill="#B27B60"/>
</g>
<g style="mix-blend-mode:screen" opacity="0.32">
<path d="M107.564 233.341L105.512 234.574C105.03 234.791 104.631 235.16 104.378 235.625C103.988 236.489 104.729 237.426 105.606 237.853C107.203 238.167 108.857 238.011 110.368 237.403C112.068 237.034 113.832 237.071 115.516 237.51C116.07 237.698 116.641 237.829 117.221 237.902C117.521 237.928 117.823 237.885 118.104 237.778C118.385 237.67 118.638 237.501 118.845 237.283C119.048 236.953 119.144 236.569 119.121 236.182C119.098 235.796 118.956 235.426 118.715 235.123C118.215 234.536 117.59 234.067 116.888 233.75C115.807 233.137 114.662 232.645 113.475 232.281C112.284 231.918 111.015 231.898 109.813 232.221C109.017 232.493 108.261 232.87 107.564 233.341Z" fill="#B27B60"/>
</g>
<g style="mix-blend-mode:screen" opacity="0.32">
<path d="M128.233 256.846C127.561 256.602 126.866 256.426 126.158 256.32C124.517 255.915 123.052 254.99 121.981 253.682C123.871 254.043 125.809 254.075 127.71 253.776C129.622 253.469 131.581 253.842 133.247 254.829C133.679 255.118 134.041 255.5 134.306 255.947C134.571 256.394 134.734 256.895 134.78 257.412C134.808 257.933 134.659 258.447 134.356 258.872C134.054 259.296 133.616 259.605 133.115 259.748C132.627 259.788 132.137 259.715 131.682 259.535C131.227 259.356 130.819 259.075 130.49 258.713C129.828 257.989 129.068 257.361 128.233 256.846Z" fill="#B27B60"/>
</g>
<g style="mix-blend-mode:screen" opacity="0.32">
<path d="M111.689 246.511C111.6 246.82 111.59 247.147 111.657 247.462C111.724 247.776 111.867 248.07 112.074 248.316C112.51 248.813 113.068 249.186 113.693 249.4C116.307 250.228 119.088 250.387 121.78 249.863C122.348 249.812 123.061 249.586 123.08 249.026C123.061 248.855 123.005 248.691 122.914 248.546C122.822 248.4 122.7 248.277 122.554 248.187C120.295 246.281 117.443 245.224 114.489 245.197C113.943 245.162 113.397 245.236 112.881 245.415C112.617 245.504 112.374 245.648 112.169 245.837C111.964 246.026 111.8 246.255 111.689 246.511Z" fill="#B27B60"/>
</g>
<g style="mix-blend-mode:screen" opacity="0.32">
<path d="M101.025 245.318C100.198 245.077 99.3982 244.752 98.6378 244.347C97.7851 243.694 96.8497 243.156 95.8561 242.748C95.3147 242.609 94.7455 242.624 94.2119 242.79C93.6784 242.956 93.2016 243.268 92.8348 243.69C92.4681 244.112 92.2258 244.627 92.135 245.179C92.0443 245.731 92.1087 246.297 92.321 246.814C92.5859 247.36 92.9665 247.842 93.4362 248.226C93.9059 248.61 94.4536 248.887 95.0412 249.038C96.2277 249.338 97.4461 249.492 98.6697 249.498C99.8964 249.465 101.117 249.68 102.259 250.129C103.14 250.521 103.884 251.16 104.782 251.555C105.209 251.788 105.691 251.899 106.177 251.877C106.662 251.855 107.132 251.7 107.537 251.43C107.827 251.15 108.032 250.792 108.125 250.399C108.218 250.006 108.197 249.594 108.063 249.213C107.781 248.45 107.241 247.81 106.537 247.404C105.836 247.011 105.092 246.698 104.32 246.473L101.025 245.318Z" fill="#B27B60"/>
</g>
<path d="M127.277 235.716L127.18 235.37C127.171 235.154 127.112 234.943 127.009 234.753C126.905 234.563 126.759 234.4 126.582 234.276C126.224 234.032 125.822 233.862 125.399 233.774C124.671 233.617 123.922 233.581 123.182 233.669C122.575 233.75 121.894 233.998 121.751 234.577C121.722 234.736 121.728 234.9 121.769 235.057C121.809 235.214 121.884 235.36 121.987 235.485C122.194 235.733 122.449 235.939 122.735 236.089C123.498 236.504 124.341 236.749 125.208 236.806C125.748 236.894 126.301 236.776 126.759 236.476C127.203 236.164 127.572 236.158 127.277 235.716Z" fill="#652700"/>
<path d="M105.936 233.17C106.061 233.397 106.24 233.59 106.458 233.731C106.676 233.873 106.926 233.957 107.185 233.978C107.706 234.123 108.253 234.157 108.788 234.076C109.056 234.037 109.313 233.941 109.54 233.794C109.768 233.647 109.961 233.453 110.107 233.224C110.248 232.996 110.313 232.729 110.294 232.461C110.274 232.194 110.17 231.94 109.997 231.735C109.996 231.672 109.972 231.613 109.929 231.568C109.885 231.523 109.827 231.497 109.764 231.494L109.303 231.12C108.764 230.936 108.182 230.921 107.635 231.078C107.088 231.234 106.602 231.555 106.242 231.996C106.103 232.154 106.002 232.343 105.949 232.546C105.896 232.75 105.891 232.964 105.936 233.17Z" fill="#B27B60"/>
<path d="M128.409 252.688C128.27 252.151 128.005 251.656 127.636 251.242C127.267 250.829 126.805 250.51 126.288 250.311C125.935 250.178 125.556 250.13 125.182 250.171C124.993 250.194 124.811 250.254 124.645 250.347C124.48 250.441 124.334 250.566 124.217 250.716C124.061 250.992 123.991 251.309 124.017 251.626C124.042 251.942 124.162 252.243 124.361 252.491C124.793 252.994 125.35 253.374 125.977 253.591C126.264 253.755 126.586 253.849 126.916 253.867C127.246 253.884 127.575 253.824 127.878 253.692C128.475 253.416 128.555 253.338 128.409 252.688Z" fill="#652700"/>
<path d="M122.837 241.934C122.648 241.542 122.337 241.222 121.951 241.022C121.566 240.821 121.125 240.75 120.696 240.819C119.841 240.974 119.039 241.344 118.365 241.894C118.148 242.021 117.961 242.193 117.817 242.399C117.672 242.606 117.574 242.84 117.529 243.088C117.539 243.704 118.171 244.118 118.763 244.298C119.818 244.611 120.942 244.606 121.995 244.286C122.598 244.099 123.245 243.707 123.341 243.087C123.437 242.467 123.074 242.561 122.837 241.934Z" fill="#652700"/>
<path d="M95.7163 244.68C96.4238 244.422 97.0902 244.062 97.6949 243.613C97.8508 243.536 97.9887 243.426 98.0995 243.292C98.2103 243.158 98.2915 243.002 98.3379 242.834C98.3468 242.735 98.3329 242.636 98.2971 242.543C98.2614 242.451 98.2048 242.368 98.1318 242.301C98.0587 242.234 97.9712 242.184 97.876 242.157C97.7808 242.129 97.6806 242.124 97.583 242.141L97.3004 241.877L97.3202 241.721L97.1992 241.706C96.8615 241.407 96.4279 241.24 95.9773 241.235C95.5381 241.246 95.1028 241.321 94.6851 241.457C94.3459 241.51 94.0218 241.634 93.7345 241.821C93.4473 242.009 93.2035 242.256 93.0197 242.546C92.9063 242.879 92.9064 243.239 93.02 243.572C93.1335 243.904 93.3542 244.189 93.6472 244.382C93.9522 244.574 94.2939 244.699 94.6503 244.75C95.0066 244.802 95.3698 244.778 95.7163 244.68Z" fill="#652700"/>
<path d="M98.1003 252.605C98.2265 253.016 98.4551 253.387 98.7645 253.684C99.0739 253.982 99.4539 254.195 99.8688 254.305C100.702 254.5 101.563 254.55 102.413 254.452C102.681 254.451 102.945 254.395 103.189 254.287C103.313 254.237 103.421 254.153 103.5 254.045C103.579 253.937 103.626 253.809 103.635 253.676C103.635 253.549 103.606 253.425 103.55 253.311C103.495 253.198 103.414 253.098 103.315 253.02C103.105 252.871 102.872 252.771 102.665 252.604C102.458 252.437 102.116 251.674 101.806 251.213C101.546 250.836 101.171 250.553 100.737 250.406C100.303 250.259 99.8337 250.257 99.3983 250.398C98.9524 250.548 98.5756 250.854 98.3371 251.259C98.0986 251.665 98.0145 252.143 98.1003 252.605Z" fill="#652700"/>
<path d="M113.209 253.22C113.648 253.179 114.079 253.08 114.492 252.926C114.752 252.819 115.016 252.676 115.068 252.402C115.12 252.128 114.762 251.766 114.454 251.569L112.911 250.723C112.558 250.49 112.172 250.311 111.767 250.192C111.56 250.129 111.343 250.109 111.129 250.134C110.914 250.158 110.707 250.225 110.52 250.332C110.26 250.519 110.072 250.79 109.988 251.1C109.904 251.409 109.929 251.738 110.059 252.031C110.176 252.316 110.355 252.571 110.585 252.776C110.814 252.982 111.087 253.132 111.383 253.217C111.985 253.341 112.606 253.342 113.209 253.22Z" fill="#652700"/>
<path d="M119.472 260.18C119.651 259.861 119.708 259.488 119.634 259.13C119.56 258.772 119.36 258.453 119.069 258.231C118.766 258.025 118.419 257.893 118.056 257.847C117.692 257.801 117.323 257.842 116.978 257.966C116.297 258.239 115.693 258.675 115.22 259.237C115.122 259.314 115.043 259.412 114.986 259.523C114.93 259.634 114.898 259.756 114.892 259.88C114.919 260.026 114.984 260.161 115.081 260.272C115.178 260.384 115.304 260.467 115.444 260.512C116.319 260.957 117.32 261.084 118.278 260.871C118.514 260.843 118.741 260.768 118.946 260.649C119.151 260.53 119.33 260.37 119.472 260.18Z" fill="#652700"/>
<path d="M132.071 263.27C132.382 263.449 132.727 263.559 133.084 263.591C133.462 263.603 133.829 263.465 134.105 263.207C134.381 262.949 134.544 262.592 134.558 262.215C134.534 261.921 134.451 261.635 134.311 261.375C134.172 261.116 133.98 260.888 133.748 260.707C133.194 260.21 132.528 259.855 131.808 259.67C131.296 259.513 130.747 259.523 130.241 259.7C129.995 259.792 129.782 259.958 129.632 260.174C129.483 260.391 129.403 260.648 129.403 260.911C129.457 261.167 129.563 261.408 129.714 261.621C129.865 261.833 130.059 262.012 130.282 262.147C130.847 262.57 131.445 262.945 132.071 263.27Z" fill="#652700"/>
<path d="M111.616 240.02C111.472 239.67 111.254 239.355 110.978 239.096C110.452 238.757 109.838 238.581 109.212 238.59C108.587 238.598 107.978 238.79 107.461 239.142C107.257 239.266 107.087 239.438 106.967 239.643C106.846 239.849 106.777 240.081 106.767 240.319C106.792 240.499 106.858 240.672 106.961 240.822C107.064 240.972 107.201 241.096 107.36 241.184C107.66 241.304 107.981 241.362 108.304 241.357C108.892 241.424 109.488 241.399 110.069 241.282C110.422 241.23 110.761 241.106 111.063 240.916C111.213 240.82 111.342 240.694 111.442 240.547C111.542 240.399 111.611 240.233 111.646 240.059C111.787 239.778 111.979 240.066 111.616 240.02Z" fill="#652700"/>
<path d="M106.17 233.814C106.836 234.23 107.599 234.465 108.383 234.498C108.775 234.513 109.165 234.426 109.514 234.245C109.863 234.065 110.159 233.797 110.374 233.469C110.538 233.165 110.613 232.822 110.592 232.477C110.57 232.133 110.453 231.802 110.253 231.521L110.125 231.417C109.804 231.215 109.438 231.094 109.06 231.065C108.681 231.035 108.301 231.098 107.952 231.247C107.25 231.556 106.603 231.978 106.038 232.497C105.822 232.681 105.584 232.897 105.601 233.18C105.617 233.463 105.926 233.66 106.17 233.814Z" fill="#652700"/>
<path d="M129.908 368.537C123.936 373.953 113.568 373.482 108.264 367.633C102.959 361.783 101.464 355.183 107.436 349.767C113.408 344.351 118.937 345.651 124.242 351.5C129.546 357.35 135.88 363.121 129.908 368.537Z" fill="#D61355"/>
<path d="M199.105 166.467C194.798 170.373 188.628 171.476 186.215 168.814C183.802 166.153 183.777 162.555 188.084 158.649C192.391 154.743 195.543 154.758 197.956 157.42C200.369 160.081 203.412 162.561 199.105 166.467Z" fill="#D56C48"/>
<path d="M159.422 267.736C160.357 270.754 159.484 274.046 157.62 274.623C155.755 275.201 153.977 274.388 153.042 271.37C152.107 268.352 152.838 266.804 154.702 266.226C156.567 265.648 158.486 264.719 159.422 267.736Z" fill="#D56C48"/>
<circle cx="169.5" cy="209.671" r="3.5" fill="#A73D22"/>
<path d="M118.68 201.166C117.036 202.916 113.198 200.802 111.208 198.812C109.218 196.822 106.7 192.904 109.6 190.005C112.499 187.105 116.38 191.118 118.37 193.107C120.36 195.097 120.324 199.416 118.68 201.166Z" fill="#E3AB5C"/>
<path d="M13.2471 159.285C12.5953 151.051 19.5164 142.935 27.6314 142.293C35.7464 141.65 42.0727 144.568 42.7245 152.802C43.3763 161.037 38.8299 164.709 30.7148 165.351C22.5998 165.993 13.8988 167.519 13.2471 159.285Z" fill="#D61355"/>
<path d="M274.475 42.5338C275.252 45.4314 273.316 48.7868 270.46 49.5519C267.605 50.3171 265.153 49.6928 264.377 46.7952C263.6 43.8976 264.981 42.2861 267.837 41.521C270.693 40.7558 273.699 39.6363 274.475 42.5338Z" fill="#D61355"/>
<defs>
<linearGradient id="paint0_linear_1_4465" x1="293.303" y1="381" x2="372.744" y2="336.46" gradientUnits="userSpaceOnUse">
<stop stop-color="#D61355"/>
<stop offset="1" stop-color="#FF0000"/>
</linearGradient>
<linearGradient id="paint1_linear_1_4465" x1="298.355" y1="147.095" x2="313.774" y2="149.969" gradientUnits="userSpaceOnUse">
<stop stop-color="#D61355"/>
<stop offset="1" stop-color="#FF0000"/>
</linearGradient>
<linearGradient id="paint2_linear_1_4465" x1="208.201" y1="163.028" x2="223.613" y2="165.922" gradientUnits="userSpaceOnUse">
<stop stop-color="#D61355"/>
<stop offset="1" stop-color="#FF0000"/>
</linearGradient>
<linearGradient id="paint3_linear_1_4465" x1="267.034" y1="127.875" x2="277.018" y2="129.888" gradientUnits="userSpaceOnUse">
<stop stop-color="#D61355"/>
<stop offset="1" stop-color="#FF0000"/>
</linearGradient>
<linearGradient id="paint4_linear_1_4465" x1="239.495" y1="186.55" x2="249.476" y2="188.571" gradientUnits="userSpaceOnUse">
<stop stop-color="#D61355"/>
<stop offset="1" stop-color="#FF0000"/>
</linearGradient>
<linearGradient id="paint5_linear_1_4465" x1="243.141" y1="166.291" x2="254.226" y2="168.478" gradientUnits="userSpaceOnUse">
<stop stop-color="#D61355"/>
<stop offset="1" stop-color="#FF0000"/>
</linearGradient>
<linearGradient id="paint6_linear_1_4465" x1="237.236" y1="119.27" x2="248.321" y2="121.457" gradientUnits="userSpaceOnUse">
<stop stop-color="#D61355"/>
<stop offset="1" stop-color="#FF0000"/>
</linearGradient>
<linearGradient id="paint7_linear_1_4465" x1="283.279" y1="178.761" x2="294.364" y2="180.948" gradientUnits="userSpaceOnUse">
<stop stop-color="#D61355"/>
<stop offset="1" stop-color="#FF0000"/>
</linearGradient>
</defs>
</svg>
